Nunito-Black.ufo
<glyph name="three" format="1">
  <advance width="1297"/>
  <unicode hex="0033"/>
  <outline>
    <contour>
      <point x="624" y="-20" type="curve" smooth="yes"/>
      <point x="937" y="-20"/>
      <point x="1186" y="105"/>
      <point x="1186" y="398" type="curve" smooth="yes"/>
      <point x="1186" y="583"/>
      <point x="1066" y="733"/>
      <point x="881" y="757" type="curve"/>
      <point x="1061" y="774"/>
      <point x="1155" y="912"/>
      <point x="1155" y="1076" type="curve" smooth="yes"/>
      <point x="1155" y="1309"/>
      <point x="958" y="1471"/>
      <point x="613" y="1471" type="curve" smooth="yes"/>
      <point x="463" y="1471"/>
      <point x="339" y="1430"/>
      <point x="264" y="1399" type="curve"/>
      <point x="108" y="1321"/>
      <point x="203" y="1097"/>
      <point x="333" y="1144" type="curve" smooth="yes"/>
      <point x="411" y="1168"/>
      <point x="513" y="1197"/>
      <point x="580" y="1196" type="curve" smooth="yes"/>
      <point x="704" y="1196"/>
      <point x="808" y="1138"/>
      <point x="808" y="1028" type="curve" smooth="yes"/>
      <point x="808" y="904"/>
      <point x="700" y="847"/>
      <point x="565" y="847" type="curve" smooth="yes"/>
      <point x="491" y="847" type="line" smooth="yes"/>
      <point x="420" y="847"/>
      <point x="383" y="788"/>
      <point x="383" y="730" type="curve" smooth="yes"/>
      <point x="383" y="667"/>
      <point x="422" y="616"/>
      <point x="491" y="616" type="curve" smooth="yes"/>
      <point x="562" y="616" type="line" smooth="yes"/>
      <point x="730" y="616"/>
      <point x="827" y="548"/>
      <point x="827" y="425" type="curve" smooth="yes"/>
      <point x="827" y="298"/>
      <point x="722" y="254"/>
      <point x="586" y="254" type="curve" smooth="yes"/>
      <point x="484" y="254"/>
      <point x="388" y="305"/>
      <point x="331" y="327" type="curve" smooth="yes"/>
      <point x="217" y="375"/>
      <point x="133" y="128"/>
      <point x="278" y="62" type="curve" smooth="yes"/>
      <point x="378" y="17"/>
      <point x="493" y="-20"/>
    </contour>
  </outline>
</glyph>
<glyph name="eight" format="1">
  <advance width="1297"/>
  <unicode hex="0038"/>
  <outline>
    <contour>
      <point x="649" y="851" type="curve" smooth="yes"/>
      <point x="525" y="851"/>
      <point x="467" y="906"/>
      <point x="467" y="1037" type="curve" smooth="yes"/>
      <point x="467" y="1170"/>
      <point x="537" y="1229"/>
      <point x="649" y="1229" type="curve" smooth="yes"/>
      <point x="761" y="1229"/>
      <point x="832" y="1171"/>
      <point x="832" y="1037" type="curve" smooth="yes"/>
      <point x="832" y="905"/>
      <point x="775" y="851"/>
    </contour>
    <contour>
      <point x="649" y="215" type="curve" smooth="yes"/>
      <point x="522" y="215"/>
      <point x="451" y="281"/>
      <point x="451" y="424" type="curve" smooth="yes"/>
      <point x="451" y="570"/>
      <point x="527" y="630"/>
      <point x="649" y="630" type="curve" smooth="yes"/>
      <point x="777" y="630"/>
      <point x="847" y="561"/>
      <point x="847" y="424" type="curve" smooth="yes"/>
      <point x="847" y="271"/>
      <point x="762" y="215"/>
    </contour>
    <contour>
      <point x="647" y="-26" type="curve" smooth="yes"/>
      <point x="1003" y="-26"/>
      <point x="1186" y="146"/>
      <point x="1186" y="386" type="curve" smooth="yes"/>
      <point x="1186" y="579"/>
      <point x="1087" y="694"/>
      <point x="915" y="741" type="curve"/>
      <point x="1059" y="776"/>
      <point x="1160" y="876"/>
      <point x="1160" y="1056" type="curve" smooth="yes"/>
      <point x="1160" y="1321"/>
      <point x="973" y="1464"/>
      <point x="647" y="1464" type="curve" smooth="yes"/>
      <point x="314" y="1464"/>
      <point x="139" y="1308"/>
      <point x="139" y="1056" type="curve" smooth="yes"/>
      <point x="139" y="879"/>
      <point x="238" y="761"/>
      <point x="381" y="741" type="curve"/>
      <point x="210" y="701"/>
      <point x="111" y="555"/>
      <point x="111" y="386" type="curve" smooth="yes"/>
      <point x="111" y="151"/>
      <point x="274" y="-26"/>
    </contour>
  </outline>
</glyph>
<glyph name="equal" format="1">
  <advance width="1288"/>
  <unicode hex="003D"/>
  <outline>
    <contour>
      <point x="231" y="627" type="curve" smooth="yes"/>
      <point x="1017" y="627" type="line" smooth="yes"/>
      <point x="1089" y="627"/>
      <point x="1158" y="651"/>
      <point x="1158" y="732" type="curve" smooth="yes"/>
      <point x="1158" y="821"/>
      <point x="1081" y="838"/>
      <point x="1017" y="838" type="curve" smooth="yes"/>
      <point x="271" y="838" type="line" smooth="yes"/>
      <point x="197" y="838"/>
      <point x="128" y="814"/>
      <point x="128" y="732" type="curve" smooth="yes"/>
      <point x="128" y="670"/>
      <point x="176" y="627"/>
    </contour>
    <contour>
      <point x="231" y="179" type="curve" smooth="yes"/>
      <point x="1018" y="179" type="line" smooth="yes"/>
      <point x="1088" y="179"/>
      <point x="1158" y="199"/>
      <point x="1158" y="283" type="curve" smooth="yes"/>
      <point x="1158" y="368"/>
      <point x="1088" y="389"/>
      <point x="1037" y="389" type="curve" smooth="yes"/>
      <point x="269" y="389" type="line" smooth="yes"/>
      <point x="197" y="389"/>
      <point x="128" y="364"/>
      <point x="128" y="283" type="curve" smooth="yes"/>
      <point x="128" y="220"/>
      <point x="178" y="179"/>
    </contour>
  </outline>
</glyph>
<glyph name="A" format="1">
  <advance width="1488"/>
  <unicode hex="0041"/>
  <outline>
    <contour>
      <point x="1264" y="19" type="move" name="ogonek"/>
    </contour>
    <contour>
      <point x="742" y="1438" type="move" name="top"/>
    </contour>
    <contour>
      <point x="1104" y="143" type="line"/>
      <point x="1183" y="-100"/>
      <point x="1502" y="-2"/>
      <point x="1417" y="249" type="curve"/>
      <point x="1052" y="1193" type="line"/>
      <point x="971" y="1427"/>
      <point x="867" y="1476"/>
      <point x="744" y="1476" type="curve" smooth="yes"/>
      <point x="621" y="1476"/>
      <point x="516" y="1427"/>
      <point x="436" y="1193" type="curve"/>
      <point x="71" y="249" type="line"/>
      <point x="-14" y="-2"/>
      <point x="305" y="-100"/>
      <point x="384" y="143" type="curve"/>
      <point x="450.223" y="331" type="line"/>
      <point x="1037.78" y="331" type="line"/>
    </contour>
    <contour>
      <point x="964.157" y="540" type="line"/>
      <point x="523.843" y="540" type="line"/>
      <point x="744" y="1165" type="line"/>
    </contour>
  </outline>
</glyph>
<glyph name="B" format="1">
  <advance width="1424"/>
  <unicode hex="0042"/>
  <outline>
    <contour>
      <point x="705" y="1438" type="move" name="top"/>
    </contour>
    <contour>
      <point x="502" y="830" type="line"/>
      <point x="502" y="1227" type="line"/>
      <point x="651" y="1227" type="line" smooth="yes"/>
      <point x="807" y="1227"/>
      <point x="936" y="1193"/>
      <point x="936" y="1030" type="curve" smooth="yes"/>
      <point x="936" y="867"/>
      <point x="808" y="830"/>
      <point x="630" y="830" type="curve" smooth="yes"/>
    </contour>
    <contour>
      <point x="502" y="228" type="line"/>
      <point x="502" y="652" type="line"/>
      <point x="637" y="652" type="line" smooth="yes"/>
      <point x="841" y="652"/>
      <point x="974" y="607"/>
      <point x="974" y="446" type="curve" smooth="yes"/>
      <point x="974" y="264"/>
      <point x="861" y="228"/>
      <point x="648" y="228" type="curve" smooth="yes"/>
    </contour>
    <contour>
      <point x="380" y="0" type="curve" smooth="yes"/>
      <point x="829" y="0" type="line" smooth="yes"/>
      <point x="1178" y="0"/>
      <point x="1335" y="200"/>
      <point x="1335" y="406" type="curve" smooth="yes"/>
      <point x="1335" y="584"/>
      <point x="1209" y="728"/>
      <point x="1009" y="757" type="curve"/>
      <point x="1009" y="761" type="line"/>
      <point x="1174" y="789"/>
      <point x="1282" y="935"/>
      <point x="1282" y="1087" type="curve" smooth="yes"/>
      <point x="1282" y="1469"/>
      <point x="940" y="1455"/>
      <point x="666" y="1455" type="curve" smooth="yes"/>
      <point x="380" y="1455" type="line" smooth="yes"/>
      <point x="257" y="1455"/>
      <point x="150" y="1405"/>
      <point x="150" y="1269" type="curve" smooth="yes"/>
      <point x="150" y="283" type="line" smooth="yes"/>
      <point x="150" y="32"/>
      <point x="231" y="0"/>
    </contour>
  </outline>
</glyph>
<glyph name="D" format="1">
  <advance width="1543"/>
  <unicode hex="0044"/>
  <outline>
    <contour>
      <point x="746" y="1438" type="move" name="top"/>
    </contour>
    <contour>
      <point x="341" y="734" type="move" name="mid"/>
    </contour>
    <contour>
      <point x="514" y="251" type="line"/>
      <point x="514" y="1202" type="line"/>
      <point x="637" y="1202" type="line" smooth="yes"/>
      <point x="935" y="1202"/>
      <point x="1055" y="1081"/>
      <point x="1055" y="726" type="curve" smooth="yes"/>
      <point x="1055" y="366"/>
      <point x="933" y="251"/>
      <point x="628" y="251" type="curve" smooth="yes"/>
    </contour>
    <contour>
      <point x="332" y="0" type="curve" smooth="yes"/>
      <point x="646" y="0" type="line" smooth="yes"/>
      <point x="1168" y="0"/>
      <point x="1441" y="244"/>
      <point x="1441" y="717" type="curve" smooth="yes"/>
      <point x="1441" y="1205"/>
      <point x="1158" y="1455"/>
      <point x="617" y="1455" type="curve" smooth="yes"/>
      <point x="402" y="1455" type="line" smooth="yes"/>
      <point x="215" y="1455"/>
      <point x="150" y="1374"/>
      <point x="150" y="1173" type="curve" smooth="yes"/>
      <point x="150" y="280" type="line" smooth="yes"/>
      <point x="150" y="142"/>
      <point x="189" y="0"/>
    </contour>
  </outline>
</glyph>
<glyph name="G" format="1">
  <advance width="1528"/>
  <unicode hex="0047"/>
  <outline>
    <contour>
      <point x="874" y="0" type="move" name="bot"/>
    </contour>
    <contour>
      <point x="826" y="1438" type="move" name="top"/>
    </contour>
    <contour>
      <point x="867" y="-38" type="curve" smooth="yes"/>
      <point x="965" y="-38"/>
      <point x="1095" y="-20"/>
      <point x="1192" y="-8" type="curve"/>
      <point x="1413" y="32"/>
      <point x="1444" y="107"/>
      <point x="1444" y="339" type="curve" smooth="yes"/>
      <point x="1444" y="602" type="line" smooth="yes"/>
      <point x="1444" y="724"/>
      <point x="1425" y="782"/>
      <point x="1321" y="782" type="curve" smooth="yes"/>
      <point x="1191" y="782"/>
      <point x="1072" y="784"/>
      <point x="943" y="784" type="curve" smooth="yes"/>
      <point x="859" y="784"/>
      <point x="820" y="744"/>
      <point x="820" y="679" type="curve" smooth="yes"/>
      <point x="820" y="592"/>
      <point x="881" y="571"/>
      <point x="962" y="571" type="curve" smooth="yes"/>
      <point x="1098" y="571" type="line"/>
      <point x="1098" y="272" type="line"/>
      <point x="1024" y="255"/>
      <point x="952" y="245"/>
      <point x="884" y="245" type="curve" smooth="yes"/>
      <point x="659" y="245"/>
      <point x="487" y="346"/>
      <point x="487" y="705" type="curve" smooth="yes"/>
      <point x="487" y="1028"/>
      <point x="621" y="1209"/>
      <point x="887" y="1209" type="curve" smooth="yes"/>
      <point x="994" y="1209"/>
      <point x="1137" y="1180"/>
      <point x="1218" y="1132" type="curve" smooth="yes"/>
      <point x="1240" y="1118"/>
      <point x="1261" y="1111"/>
      <point x="1281" y="1111" type="curve" smooth="yes"/>
      <point x="1349" y="1111"/>
      <point x="1401" y="1174"/>
      <point x="1401" y="1243" type="curve" smooth="yes"/>
      <point x="1401" y="1278"/>
      <point x="1383" y="1327"/>
      <point x="1336" y="1360" type="curve" smooth="yes"/>
      <point x="1226" y="1437"/>
      <point x="1035" y="1487"/>
      <point x="865" y="1487" type="curve" smooth="yes"/>
      <point x="340" y="1487"/>
      <point x="102" y="1144"/>
      <point x="102" y="724" type="curve" smooth="yes"/>
      <point x="102" y="195"/>
      <point x="399" y="-38"/>
    </contour>
  </outline>
</glyph>
<glyph name="K" format="1">
  <advance width="1419"/>
  <unicode hex="004B"/>
  <outline>
    <contour>
      <point x="705" y="1438" type="move" name="top"/>
    </contour>
    <contour>
      <point x="712" y="0" type="move" name="bot"/>
    </contour>
    <contour>
      <point x="334" y="0" type="curve" smooth="yes"/>
      <point x="437" y="0"/>
      <point x="519" y="95"/>
      <point x="519" y="209" type="curve" smooth="yes"/>
      <point x="517" y="715" type="line"/>
      <point x="954" y="193" type="line"/>
      <point x="1012" y="112"/>
      <point x="1078" y="-1"/>
      <point x="1173" y="0" type="curve" smooth="yes"/>
      <point x="1256" y="0"/>
      <point x="1343" y="69"/>
      <point x="1343" y="161" type="curve" smooth="yes"/>
      <point x="1343" y="221"/>
      <point x="1292" y="301"/>
      <point x="1247" y="364" type="curve"/>
      <point x="904" y="761" type="line"/>
      <point x="1224" y="1105" type="line"/>
      <point x="1268" y="1163"/>
      <point x="1318" y="1234"/>
      <point x="1318" y="1293" type="curve" smooth="yes"/>
      <point x="1318" y="1386"/>
      <point x="1237" y="1455"/>
      <point x="1155" y="1455" type="curve" smooth="yes"/>
      <point x="1083" y="1455"/>
      <point x="1037" y="1393"/>
      <point x="974" y="1310" type="curve"/>
      <point x="517" y="796" type="line"/>
      <point x="519" y="1247" type="line" smooth="yes"/>
      <point x="519" y="1361"/>
      <point x="433" y="1456"/>
      <point x="334" y="1456" type="curve" smooth="yes"/>
      <point x="232" y="1456"/>
      <point x="151" y="1361"/>
      <point x="151" y="1247" type="curve" smooth="yes"/>
      <point x="151" y="209" type="line" smooth="yes"/>
      <point x="151" y="95"/>
      <point x="232" y="0"/>
    </contour>
  </outline>
</glyph>
<glyph name="N" format="1">
  <advance width="1609"/>
  <unicode hex="004E"/>
  <outline>
    <contour>
      <point x="830" y="0" type="move" name="bot"/>
    </contour>
    <contour>
      <point x="873" y="1452" type="move" name="top"/>
    </contour>
    <contour>
      <point x="306" y="0" type="curve" smooth="yes"/>
      <point x="392" y="0"/>
      <point x="463" y="76"/>
      <point x="463" y="166" type="curve" smooth="yes"/>
      <point x="463" y="953" type="line"/>
      <point x="1060" y="170" type="line"/>
      <point x="1127" y="75"/>
      <point x="1198" y="0"/>
      <point x="1281" y="0" type="curve" smooth="yes"/>
      <point x="1435" y="0"/>
      <point x="1459" y="145"/>
      <point x="1459" y="302" type="curve" smooth="yes"/>
      <point x="1459" y="1290" type="line" smooth="yes"/>
      <point x="1459" y="1380"/>
      <point x="1389" y="1456"/>
      <point x="1302" y="1456" type="curve" smooth="yes"/>
      <point x="1215" y="1456"/>
      <point x="1147" y="1380"/>
      <point x="1147" y="1290" type="curve" smooth="yes"/>
      <point x="1147" y="516" type="line"/>
      <point x="555" y="1284" type="line"/>
      <point x="493" y="1377"/>
      <point x="416" y="1455"/>
      <point x="332" y="1456" type="curve" smooth="yes"/>
      <point x="232" y="1456"/>
      <point x="150" y="1380"/>
      <point x="150" y="1243" type="curve" smooth="yes"/>
      <point x="150" y="166" type="line" smooth="yes"/>
      <point x="150" y="77"/>
      <point x="218" y="0"/>
    </contour>
  </outline>
</glyph>
<glyph name="R" format="1">
  <advance width="1448"/>
  <unicode hex="0052"/>
  <outline>
    <contour>
      <point x="762" y="0" type="move" name="bot"/>
    </contour>
    <contour>
      <point x="735" y="1438" type="move" name="top"/>
    </contour>
    <contour>
      <point x="513" y="830" type="line"/>
      <point x="513" y="1228" type="line"/>
      <point x="667" y="1228" type="line" smooth="yes"/>
      <point x="825" y="1228"/>
      <point x="979" y="1222"/>
      <point x="979" y="1027" type="curve" smooth="yes"/>
      <point x="979" y="857"/>
      <point x="819" y="830"/>
      <point x="675" y="830" type="curve" smooth="yes"/>
    </contour>
    <contour>
      <point x="334" y="0" type="curve" smooth="yes"/>
      <point x="437" y="0"/>
      <point x="519" y="68"/>
      <point x="519" y="208" type="curve" smooth="yes"/>
      <point x="519" y="592" type="line"/>
      <point x="724" y="592" type="line" smooth="yes"/>
      <point x="885" y="592"/>
      <point x="942" y="524"/>
      <point x="956" y="376" type="curve" smooth="yes"/>
      <point x="971" y="245" type="line"/>
      <point x="985" y="73"/>
      <point x="1043" y="0"/>
      <point x="1163" y="0" type="curve" smooth="yes"/>
      <point x="1305" y="0"/>
      <point x="1353" y="88"/>
      <point x="1331" y="292" type="curve"/>
      <point x="1312" y="425" type="line"/>
      <point x="1286" y="644"/>
      <point x="1231" y="721"/>
      <point x="1019" y="745" type="curve"/>
      <point x="1019" y="749" type="line"/>
      <point x="1255" y="790"/>
      <point x="1341" y="924"/>
      <point x="1341" y="1091" type="curve" smooth="yes"/>
      <point x="1341" y="1396"/>
      <point x="1074" y="1456"/>
      <point x="779" y="1456" type="curve" smooth="yes"/>
      <point x="377" y="1456" type="line" smooth="yes"/>
      <point x="255" y="1456"/>
      <point x="150" y="1395"/>
      <point x="150" y="1261" type="curve" smooth="yes"/>
      <point x="150" y="208" type="line" smooth="yes"/>
      <point x="150" y="74"/>
      <point x="232" y="0"/>
    </contour>
  </outline>
</glyph>
<glyph name="backslash" format="1">
  <advance width="668"/>
  <unicode hex="005C"/>
  <outline>
    <contour>
      <point x="563" y="-66" type="curve" smooth="yes"/>
      <point x="612" y="-66"/>
      <point x="667" y="-30"/>
      <point x="667" y="32" type="curve" smooth="yes"/>
      <point x="667" y="53"/>
      <point x="660" y="79"/>
      <point x="653" y="104" type="curve" smooth="yes"/>
      <point x="219" y="1366" type="line" smooth="yes"/>
      <point x="195" y="1435"/>
      <point x="165" y="1504"/>
      <point x="103" y="1504" type="curve" smooth="yes"/>
      <point x="48" y="1504"/>
      <point x="1" y="1473"/>
      <point x="1" y="1406" type="curve" smooth="yes"/>
      <point x="1" y="1395"/>
      <point x="2" y="1382"/>
      <point x="7" y="1366" type="curve" smooth="yes"/>
      <point x="451" y="71" type="line" smooth="yes"/>
      <point x="473" y="1"/>
      <point x="503" y="-66"/>
    </contour>
  </outline>
</glyph>
<glyph name="bracketright" format="1">
  <advance width="787"/>
  <unicode hex="005D"/>
  <outline>
    <contour>
      <point x="203" y="-250" type="curve"/>
      <point x="450" y="-250" type="line" smooth="yes"/>
      <point x="544" y="-250"/>
      <point x="617" y="-195"/>
      <point x="617" y="-98" type="curve" smooth="yes"/>
      <point x="617" y="1244" type="line" smooth="yes"/>
      <point x="617" y="1409"/>
      <point x="553" y="1454"/>
      <point x="450" y="1454" type="curve" smooth="yes"/>
      <point x="224" y="1454" type="line" smooth="yes"/>
      <point x="136" y="1454"/>
      <point x="92" y="1409"/>
      <point x="92" y="1336" type="curve" smooth="yes"/>
      <point x="92" y="1257"/>
      <point x="141" y="1219"/>
      <point x="225" y="1219" type="curve" smooth="yes"/>
      <point x="326" y="1219" type="line"/>
      <point x="326" y="-14" type="line"/>
      <point x="225" y="-14" type="line" smooth="yes"/>
      <point x="135" y="-14"/>
      <point x="91" y="-57"/>
      <point x="91" y="-130" type="curve" smooth="yes"/>
      <point x="91" y="-190"/>
      <point x="128" y="-242"/>
    </contour>
  </outline>
</glyph>
<glyph name="n" format="1">
  <advance width="1229"/>
  <unicode hex="006E"/>
  <outline>
    <contour>
      <point x="627" y="0" type="move" name="bot"/>
    </contour>
    <contour>
      <point x="642" y="991" type="move" name="top"/>
    </contour>
    <contour>
      <point x="271" y="0" type="curve" smooth="yes"/>
      <point x="388" y="0"/>
      <point x="436" y="76"/>
      <point x="436" y="214" type="curve" smooth="yes"/>
      <point x="436" y="594" type="line" smooth="yes"/>
      <point x="436" y="726"/>
      <point x="527" y="819"/>
      <point x="641" y="819" type="curve" smooth="yes"/>
      <point x="732" y="819"/>
      <point x="803" y="757"/>
      <point x="803" y="635" type="curve" smooth="yes"/>
      <point x="803" y="214" type="line" smooth="yes"/>
      <point x="803" y="76"/>
      <point x="845" y="0"/>
      <point x="956" y="0" type="curve" smooth="yes"/>
      <point x="1073" y="0"/>
      <point x="1121" y="76"/>
      <point x="1121" y="214" type="curve" smooth="yes"/>
      <point x="1121" y="641" type="line" smooth="yes"/>
      <point x="1121" y="889"/>
      <point x="980" y="1027"/>
      <point x="787" y="1027" type="curve" smooth="yes"/>
      <point x="613" y="1027"/>
      <point x="493" y="961"/>
      <point x="435" y="827" type="curve"/>
      <point x="435" y="831" type="line" smooth="yes"/>
      <point x="435" y="947"/>
      <point x="387" y="1007"/>
      <point x="279" y="1007" type="curve" smooth="yes"/>
      <point x="169" y="1007"/>
      <point x="118" y="951"/>
      <point x="118" y="833" type="curve" smooth="yes"/>
      <point x="118" y="214" type="line" smooth="yes"/>
      <point x="118" y="76"/>
      <point x="160" y="0"/>
    </contour>
  </outline>
</glyph>
<glyph name="p" format="1">
  <advance width="1279"/>
  <unicode hex="0070"/>
  <outline>
    <contour>
      <point x="666" y="196" type="curve" smooth="yes"/>
      <point x="522" y="196"/>
      <point x="435" y="296"/>
      <point x="435" y="508" type="curve" smooth="yes"/>
      <point x="435" y="701"/>
      <point x="501" y="819"/>
      <point x="671" y="819" type="curve" smooth="yes"/>
      <point x="839" y="819"/>
      <point x="895" y="658"/>
      <point x="895" y="512" type="curve" smooth="yes"/>
      <point x="895" y="324"/>
      <point x="822" y="196"/>
    </contour>
    <contour>
      <point x="269" y="-369" type="curve" smooth="yes"/>
      <point x="386" y="-369"/>
      <point x="434" y="-292"/>
      <point x="434" y="-154" type="curve" smooth="yes"/>
      <point x="434" y="159" type="line"/>
      <point x="485" y="52"/>
      <point x="603" y="-12"/>
      <point x="752" y="-12" type="curve" smooth="yes"/>
      <point x="994" y="-12"/>
      <point x="1199" y="152"/>
      <point x="1199" y="501" type="curve" smooth="yes"/>
      <point x="1199" y="852"/>
      <point x="1010" y="1027"/>
      <point x="765" y="1027" type="curve" smooth="yes"/>
      <point x="620" y="1027"/>
      <point x="495" y="971"/>
      <point x="433" y="838" type="curve"/>
      <point x="433" y="850" type="line" smooth="yes"/>
      <point x="433" y="938"/>
      <point x="381" y="1007"/>
      <point x="278" y="1007" type="curve" smooth="yes"/>
      <point x="167" y="1007"/>
      <point x="116" y="918"/>
      <point x="116" y="780" type="curve" smooth="yes"/>
      <point x="116" y="-154" type="line" smooth="yes"/>
      <point x="116" y="-292"/>
      <point x="158" y="-369"/>
    </contour>
  </outline>
</glyph>
<glyph name="r" format="1">
  <advance width="823"/>
  <unicode hex="0072"/>
  <outline>
    <contour>
      <point x="276" y="0" type="move" name="bot"/>
    </contour>
    <contour>
      <point x="378" y="1001" type="move" name="top"/>
    </contour>
    <contour>
      <point x="276" y="0" type="curve" smooth="yes"/>
      <point x="393" y="0"/>
      <point x="435" y="68"/>
      <point x="435" y="206" type="curve" smooth="yes"/>
      <point x="435" y="552" type="line" smooth="yes"/>
      <point x="435" y="695"/>
      <point x="564" y="766"/>
      <point x="690" y="766" type="curve" smooth="yes"/>
      <point x="846" y="766"/>
      <point x="869" y="1028"/>
      <point x="687" y="1028" type="curve" smooth="yes"/>
      <point x="551" y="1028"/>
      <point x="469" y="902"/>
      <point x="435" y="813" type="curve"/>
      <point x="435" y="848" type="line" smooth="yes"/>
      <point x="435" y="1052"/>
      <point x="117" y="1064"/>
      <point x="117" y="850" type="curve" smooth="yes"/>
      <point x="117" y="214" type="line" smooth="yes"/>
      <point x="117" y="77"/>
      <point x="165" y="0"/>
    </contour>
  </outline>
</glyph>
<glyph name="currency" format="1">
  <advance width="1257"/>
  <unicode hex="00A4"/>
  <outline>
    <contour>
      <point x="635" y="326" type="curve" smooth="yes"/>
      <point x="446" y="326"/>
      <point x="350" y="469"/>
      <point x="350" y="615" type="curve" smooth="yes"/>
      <point x="350" y="758"/>
      <point x="443" y="906"/>
      <point x="635" y="906" type="curve" smooth="yes"/>
      <point x="824" y="906"/>
      <point x="921" y="759"/>
      <point x="921" y="615" type="curve" smooth="yes"/>
      <point x="921" y="459"/>
      <point x="817" y="326"/>
    </contour>
    <contour>
      <point x="247" y="158" type="curve" smooth="yes"/>
      <point x="277" y="158"/>
      <point x="295" y="174"/>
      <point x="322" y="205" type="curve"/>
      <point x="385" y="264" type="line"/>
      <point x="453" y="222"/>
      <point x="535" y="200"/>
      <point x="635" y="200" type="curve" smooth="yes"/>
      <point x="735" y="200"/>
      <point x="818" y="221"/>
      <point x="885" y="264" type="curve"/>
      <point x="957" y="196" type="line" smooth="yes"/>
      <point x="972" y="179"/>
      <point x="991" y="162"/>
      <point x="1010" y="158" type="curve"/>
      <point x="1047" y="158"/>
      <point x="1082" y="174"/>
      <point x="1087" y="220" type="curve"/>
      <point x="1086" y="255"/>
      <point x="1073" y="273"/>
      <point x="1046" y="303" type="curve"/>
      <point x="986" y="356" type="line"/>
      <point x="1045" y="432"/>
      <point x="1073" y="519"/>
      <point x="1073" y="615" type="curve" smooth="yes"/>
      <point x="1073" y="704"/>
      <point x="1046" y="797"/>
      <point x="990" y="868" type="curve"/>
      <point x="1054" y="928" type="line" smooth="yes"/>
      <point x="1074" y="949"/>
      <point x="1087" y="965"/>
      <point x="1087" y="1000" type="curve" smooth="yes"/>
      <point x="1084" y="1033"/>
      <point x="1053" y="1061"/>
      <point x="1021" y="1061" type="curve" smooth="yes"/>
      <point x="1003" y="1061"/>
      <point x="976" y="1047"/>
      <point x="957" y="1026" type="curve" smooth="yes"/>
      <point x="892" y="964" type="line"/>
      <point x="824" y="1010"/>
      <point x="740" y="1034"/>
      <point x="635" y="1034" type="curve" smooth="yes"/>
      <point x="530" y="1034"/>
      <point x="447" y="1007"/>
      <point x="379" y="964" type="curve"/>
      <point x="314" y="1026" type="line" smooth="yes"/>
      <point x="294" y="1044"/>
      <point x="276" y="1064"/>
      <point x="253" y="1064" type="curve" smooth="yes"/>
      <point x="218" y="1064"/>
      <point x="185" y="1033"/>
      <point x="185" y="1000" type="curve" smooth="yes"/>
      <point x="185" y="966"/>
      <point x="197" y="951"/>
      <point x="218" y="928" type="curve" smooth="yes"/>
      <point x="281" y="868" type="line"/>
      <point x="225" y="793"/>
      <point x="199" y="706"/>
      <point x="199" y="615" type="curve" smooth="yes"/>
      <point x="199" y="521"/>
      <point x="225" y="430"/>
      <point x="285" y="357" type="curve"/>
      <point x="205" y="278" type="line" smooth="yes"/>
      <point x="194" y="267"/>
      <point x="187" y="255"/>
      <point x="185" y="240" type="curve" smooth="yes"/>
      <point x="185" y="202"/>
      <point x="205" y="162"/>
    </contour>
  </outline>
</glyph>
<glyph name="yen" format="1">
  <advance width="1336"/>
  <unicode hex="00A5"/>
  <outline>
    <component base="Y"/>
    <contour>
      <point x="230" y="527" type="curve" smooth="yes"/>
      <point x="1160" y="527" type="line" smooth="yes"/>
      <point x="1204" y="527"/>
      <point x="1225" y="570"/>
      <point x="1225" y="605" type="curve" smooth="yes"/>
      <point x="1225" y="637"/>
      <point x="1203" y="683"/>
      <point x="1160" y="683" type="curve" smooth="yes"/>
      <point x="230" y="683" type="line" smooth="yes"/>
      <point x="185" y="683"/>
      <point x="165" y="638"/>
      <point x="165" y="606" type="curve" smooth="yes"/>
      <point x="165" y="571"/>
      <point x="185" y="527"/>
    </contour>
    <contour>
      <point x="230" y="289" type="curve" smooth="yes"/>
      <point x="1160" y="289" type="line" smooth="yes"/>
      <point x="1204" y="289"/>
      <point x="1225" y="331"/>
      <point x="1225" y="367" type="curve" smooth="yes"/>
      <point x="1225" y="399"/>
      <point x="1203" y="444"/>
      <point x="1160" y="444" type="curve" smooth="yes"/>
      <point x="230" y="444" type="line" smooth="yes"/>
      <point x="185" y="444"/>
      <point x="165" y="400"/>
      <point x="165" y="368" type="curve" smooth="yes"/>
      <point x="165" y="332"/>
      <point x="185" y="289"/>
    </contour>
  </outline>
</glyph>
<glyph name="dieresis" format="1">
  <advance width="569"/>
  <unicode hex="00A8"/>
  <outline>
    <contour>
      <point x="287" y="1040" type="move" name="_top"/>
    </contour>
    <contour>
      <point x="515" y="1167" type="curve" smooth="yes"/>
      <point x="593" y="1167"/>
      <point x="662" y="1231"/>
      <point x="662" y="1315" type="curve" smooth="yes"/>
      <point x="662" y="1402"/>
      <point x="590" y="1464"/>
      <point x="515" y="1464" type="curve" smooth="yes"/>
      <point x="429" y="1464"/>
      <point x="366" y="1394"/>
      <point x="366" y="1315" type="curve" smooth="yes"/>
      <point x="366" y="1226"/>
      <point x="438" y="1167"/>
    </contour>
    <contour>
      <point x="55" y="1167" type="curve" smooth="yes"/>
      <point x="134" y="1167"/>
      <point x="203" y="1231"/>
      <point x="203" y="1315" type="curve" smooth="yes"/>
      <point x="203" y="1400"/>
      <point x="134" y="1464"/>
      <point x="55" y="1464" type="curve" smooth="yes"/>
      <point x="-27" y="1464"/>
      <point x="-93" y="1396"/>
      <point x="-93" y="1315" type="curve" smooth="yes"/>
      <point x="-93" y="1226"/>
      <point x="-20" y="1167"/>
    </contour>
  </outline>
</glyph>
<glyph name="uni00B3" format="1">
  <advance width="850"/>
  <unicode hex="00B3"/>
  <outline>
    <contour>
      <point x="418" y="595" type="curve" smooth="yes"/>
      <point x="601" y="595"/>
      <point x="716" y="692"/>
      <point x="716" y="826" type="curve" smooth="yes"/>
      <point x="716" y="940"/>
      <point x="656" y="1006"/>
      <point x="548" y="1041" type="curve"/>
      <point x="637" y="1067"/>
      <point x="696" y="1130"/>
      <point x="696" y="1225" type="curve" smooth="yes"/>
      <point x="696" y="1373"/>
      <point x="579" y="1465"/>
      <point x="418" y="1465" type="curve" smooth="yes"/>
      <point x="355" y="1465"/>
      <point x="158" y="1437"/>
      <point x="158" y="1356" type="curve" smooth="yes"/>
      <point x="158" y="1319"/>
      <point x="184" y="1290"/>
      <point x="227" y="1290" type="curve" smooth="yes"/>
      <point x="245" y="1290"/>
      <point x="339" y="1316"/>
      <point x="405" y="1316" type="curve" smooth="yes"/>
      <point x="478" y="1316"/>
      <point x="538" y="1284"/>
      <point x="538" y="1220" type="curve" smooth="yes"/>
      <point x="538" y="1145"/>
      <point x="476" y="1102"/>
      <point x="396" y="1102" type="curve" smooth="yes"/>
      <point x="349" y="1102" type="line" smooth="yes"/>
      <point x="309" y="1102"/>
      <point x="287" y="1070"/>
      <point x="287" y="1035" type="curve" smooth="yes"/>
      <point x="287" y="1001"/>
      <point x="308" y="969"/>
      <point x="349" y="969" type="curve" smooth="yes"/>
      <point x="396" y="969" type="line" smooth="yes"/>
      <point x="496" y="969"/>
      <point x="550" y="905"/>
      <point x="550" y="843" type="curve" smooth="yes"/>
      <point x="550" y="768"/>
      <point x="490" y="741"/>
      <point x="414" y="741" type="curve" smooth="yes"/>
      <point x="346" y="741"/>
      <point x="265" y="774"/>
      <point x="234" y="774" type="curve" smooth="yes"/>
      <point x="181" y="774"/>
      <point x="160" y="735"/>
      <point x="160" y="702" type="curve" smooth="yes"/>
      <point x="160" y="631"/>
      <point x="327" y="595"/>
    </contour>
  </outline>
</glyph>
<glyph name="ordmasculine" format="1">
  <advance width="1027"/>
  <unicode hex="00BA"/>
  <outline>
    <contour>
      <point x="503" y="790" type="curve" smooth="yes"/>
      <point x="797" y="790"/>
      <point x="925" y="958"/>
      <point x="925" y="1152" type="curve" smooth="yes"/>
      <point x="925" y="1362"/>
      <point x="787" y="1514"/>
      <point x="503" y="1514" type="curve" smooth="yes"/>
      <point x="204" y="1514"/>
      <point x="84" y="1339"/>
      <point x="84" y="1152" type="curve" smooth="yes"/>
      <point x="84" y="948"/>
      <point x="212" y="790"/>
    </contour>
    <contour>
      <point x="504" y="936" type="curve" smooth="yes"/>
      <point x="384" y="936"/>
      <point x="335" y="1033"/>
      <point x="335" y="1148" type="curve" smooth="yes"/>
      <point x="335" y="1269"/>
      <point x="387" y="1368"/>
      <point x="504" y="1368" type="curve" smooth="yes"/>
      <point x="621" y="1368"/>
      <point x="673" y="1270"/>
      <point x="673" y="1154" type="curve" smooth="yes"/>
      <point x="673" y="1032"/>
      <point x="621" y="936"/>
    </contour>
  </outline>
</glyph>
<glyph name="Eng" format="1">
  <advance width="1609"/>
  <unicode hex="014A"/>
  <outline>
    <component base="N"/>
    <contour>
      <point x="705" y="-433" type="curve" smooth="yes"/>
      <point x="1173" y="-548"/>
      <point x="1459" y="-457"/>
      <point x="1459" y="49" type="curve" smooth="yes"/>
      <point x="1459" y="350" type="line"/>
      <point x="1143" y="353" type="line"/>
      <point x="1143" y="-7" type="line" smooth="yes"/>
      <point x="1143" y="-242"/>
      <point x="1045" y="-316"/>
      <point x="746" y="-231" type="curve" smooth="yes"/>
      <point x="614" y="-192"/>
      <point x="555" y="-396"/>
    </contour>
  </outline>
</glyph>
<glyph name="ring" format="1">
  <advance width="569"/>
  <unicode hex="02DA"/>
  <outline>
    <contour>
      <point x="285" y="1040" type="move" name="_top"/>
    </contour>
    <contour>
      <point x="274" y="1177" type="curve" smooth="yes"/>
      <point x="406" y="1177"/>
      <point x="500" y="1272"/>
      <point x="500" y="1405" type="curve" smooth="yes"/>
      <point x="500" y="1539"/>
      <point x="406" y="1633"/>
      <point x="274" y="1633" type="curve" smooth="yes"/>
      <point x="141" y="1633"/>
      <point x="48" y="1539"/>
      <point x="48" y="1405" type="curve" smooth="yes"/>
      <point x="48" y="1272"/>
      <point x="141" y="1177"/>
    </contour>
    <contour>
      <point x="274" y="1309" type="curve" smooth="yes"/>
      <point x="216" y="1309"/>
      <point x="175" y="1349"/>
      <point x="175" y="1405" type="curve" smooth="yes"/>
      <point x="175" y="1462"/>
      <point x="216" y="1501"/>
      <point x="274" y="1501" type="curve" smooth="yes"/>
      <point x="332" y="1501"/>
      <point x="373" y="1462"/>
      <point x="373" y="1405" type="curve" smooth="yes"/>
      <point x="373" y="1349"/>
      <point x="332" y="1309"/>
    </contour>
  </outline>
</glyph>
<glyph name="ogonek" format="1">
  <advance width="569"/>
  <unicode hex="02DB"/>
  <outline>
    <contour>
      <point x="243" y="0" type="move" name="_ogonek"/>
    </contour>
    <contour>
      <point x="459" y="-491" type="curve"/>
      <point x="459" y="-348" type="line"/>
      <point x="347" y="-348"/>
      <point x="167" y="-272"/>
      <point x="315" y="0" type="curve"/>
      <point x="164" y="0" type="line"/>
      <point x="-110" y="-321"/>
      <point x="141" y="-627"/>
    </contour>
  </outline>
</glyph>
<glyph name="daggerdbl" format="1">
  <advance width="1298"/>
  <unicode hex="2021"/>
  <outline>
    <contour>
      <point x="648" y="2" type="curve" smooth="yes"/>
      <point x="751" y="2"/>
      <point x="783" y="106"/>
      <point x="783" y="217" type="curve" smooth="yes"/>
      <point x="783" y="291" type="line"/>
      <point x="986" y="291" type="line" smooth="yes"/>
      <point x="1074" y="291"/>
      <point x="1128" y="328"/>
      <point x="1128" y="407" type="curve" smooth="yes"/>
      <point x="1128" y="497"/>
      <point x="1060" y="520"/>
      <point x="986" y="520" type="curve" smooth="yes"/>
      <point x="783" y="520" type="line"/>
      <point x="783" y="957" type="line"/>
      <point x="986" y="957" type="line" smooth="yes"/>
      <point x="1074" y="957"/>
      <point x="1128" y="994"/>
      <point x="1128" y="1073" type="curve" smooth="yes"/>
      <point x="1128" y="1162"/>
      <point x="1060" y="1185"/>
      <point x="986" y="1185" type="curve" smooth="yes"/>
      <point x="783" y="1185" type="line"/>
      <point x="783" y="1277" type="line" smooth="yes"/>
      <point x="783" y="1404"/>
      <point x="740" y="1476"/>
      <point x="648" y="1476" type="curve" smooth="yes"/>
      <point x="538" y="1476"/>
      <point x="514" y="1364"/>
      <point x="514" y="1259" type="curve" smooth="yes"/>
      <point x="514" y="1185" type="line"/>
      <point x="310" y="1185" type="line" smooth="yes"/>
      <point x="218" y="1185"/>
      <point x="169" y="1147"/>
      <point x="169" y="1069" type="curve" smooth="yes"/>
      <point x="169" y="977"/>
      <point x="234" y="957"/>
      <point x="310" y="957" type="curve" smooth="yes"/>
      <point x="514" y="957" type="line"/>
      <point x="514" y="520" type="line"/>
      <point x="310" y="520" type="line" smooth="yes"/>
      <point x="218" y="520"/>
      <point x="169" y="482"/>
      <point x="169" y="404" type="curve" smooth="yes"/>
      <point x="169" y="307"/>
      <point x="243" y="291"/>
      <point x="324" y="291" type="curve" smooth="yes"/>
      <point x="514" y="291" type="line"/>
      <point x="514" y="200" type="line" smooth="yes"/>
      <point x="514" y="73"/>
      <point x="556" y="2"/>
    </contour>
  </outline>
</glyph>
<glyph name="greaterequal" format="1">
  <advance width="1235"/>
  <unicode hex="2265"/>
  <outline>
    <contour>
      <point x="201" y="-12" type="curve" smooth="yes"/>
      <point x="1009" y="-12" type="line" smooth="yes"/>
      <point x="1080" y="-12"/>
      <point x="1127" y="4"/>
      <point x="1127" y="77" type="curve" smooth="yes"/>
      <point x="1127" y="148"/>
      <point x="1082" y="167"/>
      <point x="1027" y="167" type="curve" smooth="yes"/>
      <point x="236" y="167" type="line" smooth="yes"/>
      <point x="161" y="167"/>
      <point x="120" y="144"/>
      <point x="120" y="78" type="curve" smooth="yes"/>
      <point x="120" y="37"/>
      <point x="144" y="-12"/>
    </contour>
    <contour>
      <point x="194" y="327" type="curve" smooth="yes"/>
      <point x="205" y="327"/>
      <point x="217" y="327"/>
      <point x="232" y="331" type="curve" smooth="yes"/>
      <point x="1049" y="662" type="line" smooth="yes"/>
      <point x="1123" y="695"/>
      <point x="1160" y="733"/>
      <point x="1160" y="794" type="curve" smooth="yes"/>
      <point x="1160" y="859"/>
      <point x="1116" y="898"/>
      <point x="1050" y="927" type="curve" smooth="yes"/>
      <point x="279" y="1239" type="line" smooth="yes"/>
      <point x="250" y="1253"/>
      <point x="216" y="1270"/>
      <point x="192" y="1270" type="curve" smooth="yes"/>
      <point x="137" y="1270"/>
      <point x="101" y="1219"/>
      <point x="101" y="1173" type="curve" smooth="yes"/>
      <point x="101" y="1113"/>
      <point x="150" y="1090"/>
      <point x="207" y="1064" type="curve" smooth="yes"/>
      <point x="877" y="795" type="line"/>
      <point x="211" y="535" type="line" smooth="yes"/>
      <point x="148" y="507"/>
      <point x="102" y="479"/>
      <point x="102" y="425" type="curve" smooth="yes"/>
      <point x="102" y="372"/>
      <point x="141" y="327"/>
    </contour>
  </outline>
</glyph>
<glyph name="dotaccentcmb" format="1">
  <advance width="600"/>
  <outline>
    <contour>
      <point x="336" y="1200" type="curve" smooth="yes"/>
      <point x="433" y="1200"/>
      <point x="506" y="1277"/>
      <point x="506" y="1371" type="curve" smooth="yes"/>
      <point x="506" y="1477"/>
      <point x="421" y="1541"/>
      <point x="336" y="1541" type="curve" smooth="yes"/>
      <point x="239" y="1541"/>
      <point x="169" y="1463"/>
      <point x="169" y="1371" type="curve" smooth="yes"/>
      <point x="169" y="1272"/>
      <point x="244" y="1200"/>
    </contour>
  </outline>
</glyph>
